<?xml version="1.0" encoding="utf-8"?>
<svg xmlns="http://www.w3.org/2000/svg" viewBox="0 0 500 500">
  <path d="M 309.232 93.595 C 309.816 93.923 310.4 94.251 311.001 94.588 C 337.421 109.609 358.619 134.049 366.762 163.62 C 368.824 171.569 370.599 179.345 370.232 187.595 C 371.034 187.83 371.836 188.065 372.662 188.306 C 377.114 189.914 381.181 192.005 385.357 194.22 C 386.199 194.666 387.041 195.112 387.908 195.571 C 398.458 201.236 408.101 207.831 417.232 215.595 C 418.19 216.406 419.148 217.217 420.135 218.052 C 440.006 235.312 454.322 258.982 456.232 285.595 C 456.286 286.319 456.341 287.042 456.396 287.787 C 457.344 313.247 444.897 336.84 428.041 355.103 C 391.239 393.793 336.743 409.895 285.232 416.595 C 283.87 416.775 283.87 416.775 282.48 416.959 C 221.389 424.636 153.758 415.897 99.232 386.595 C 98.229 386.068 98.229 386.068 97.206 385.529 C 83.368 378.23 71.619 369.354 60.232 358.595 C 59.461 357.877 58.691 357.159 57.896 356.42 C 39.7 338.938 28.722 315.855 27.982 290.595 C 28.612 267.875 37.264 247.503 52.232 230.595 C 53.042 229.643 53.851 228.69 54.685 227.709 C 70.003 210.02 91.023 197.11 112.232 187.595 C 112.892 187.595 113.552 187.595 114.232 187.595 C 114.246 186.877 114.261 186.159 114.275 185.42 C 115.042 168.775 120.153 154.035 128.232 139.595 C 128.714 138.685 129.197 137.775 129.693 136.838 C 133.877 129.317 139.502 122.963 145.232 116.595 C 145.953 115.79 146.673 114.984 147.416 114.154 C 165.02 95.551 190.249 83.364 215.232 78.595 C 216.295 78.392 217.357 78.188 218.451 77.978 C 249.591 72.949 281.769 78.046 309.232 93.595 Z M 176.666 146.072 C 163.648 159.949 156.804 176.034 157.021 195.158 C 157.817 208.127 163.064 219.582 172.568 228.466 C 197.689 248.541 233.432 249.614 263.971 246.287 C 282.558 244.013 304.771 238.342 317.146 223.263 C 326.087 210.302 329.119 197.391 326.615 181.736 C 322.544 161.925 310.961 145.897 294.232 134.595 C 257.325 111.662 208.197 115.645 176.666 146.072 Z M 362.232 230.595 C 361.892 231.273 361.552 231.951 361.201 232.65 C 353.647 247.156 343.006 258.789 329.232 267.595 C 328.398 268.159 327.564 268.722 326.705 269.302 C 309.447 280.271 289.179 284.551 269.232 287.595 C 268.515 287.707 267.797 287.819 267.058 287.935 C 259.297 288.973 251.423 288.839 243.607 288.845 C 242.444 288.846 242.444 288.846 241.257 288.847 C 204.012 288.796 166.209 280.675 138.545 254.22 C 131.974 247.487 127.117 239.588 122.232 231.595 C 112.063 235.411 103.47 241.642 95.232 248.595 C 94.329 249.28 94.329 249.28 93.408 249.978 C 83.138 257.974 75.376 270.073 72.232 282.595 C 70.566 298.342 75.495 309.536 85.232 321.595 C 85.68 322.206 86.127 322.817 86.588 323.447 C 110.398 354.364 160.82 367.527 197.176 372.683 C 222.394 375.865 246.959 375.784 272.232 373.595 C 273.351 373.501 274.469 373.407 275.621 373.31 C 311.789 370.074 351.839 359.871 381.232 337.595 C 382.493 336.663 382.493 336.663 383.779 335.713 C 397.066 325.521 409.569 313.117 412.717 295.955 C 414.19 281.481 409.088 269.339 400.113 258.132 C 390.19 246.359 377.742 237.831 364.232 230.595 C 363.572 230.595 362.912 230.595 362.232 230.595 Z" fill="#ffffff" style="stroke-width: 1;"/>
  <path d="M 342.232 295.595 C 346.88 300.09 349.279 304.45 349.545 310.908 C 349.347 317.533 347.574 322.464 343.107 327.408 C 338.665 331.486 333.976 333.449 327.939 333.685 C 321.592 333.259 315.83 331.396 311.435 326.658 C 306.24 319.929 305.172 314.056 306.232 305.595 C 308.633 299.164 312.307 294.662 318.365 291.427 C 326.83 287.655 335.259 289.916 342.232 295.595 Z" fill="#ffffff" style="stroke-width: 1;"/>
  <path d="M 169.373 293.22 C 173.598 296.345 176.582 300.645 178.232 305.595 C 179.156 313.28 178.49 319.016 174.064 325.463 C 170.096 330.082 165.807 332.579 159.795 333.595 C 152.758 333.982 147.279 331.746 141.857 327.345 C 137.227 322.936 135.143 318.561 134.857 312.158 C 135.135 305.608 136.941 300.671 141.357 295.783 C 149.51 288.298 159.867 288.049 169.373 293.22 Z" fill="#ffffff" style="stroke-width: 1;"/>
  <path d="M 250.41 231.065 C 254.635 234.19 257.619 238.49 259.269 243.44 C 260.193 251.125 259.527 256.861 255.101 263.308 C 251.133 267.927 246.844 270.424 240.832 271.44 C 233.795 271.827 228.316 269.591 222.894 265.19 C 218.264 260.781 216.18 256.406 215.894 250.003 C 216.172 243.453 217.978 238.516 222.394 233.628 C 230.547 226.143 240.904 225.894 250.41 231.065 Z" fill="#ffffff" style="stroke-width: 1;"/>
</svg>